<svg xmlns="http://www.w3.org/2000/svg" xmlns:xlink="http://www.w3.org/1999/xlink" width="289" zoomAndPan="magnify" viewBox="0 0 216.75 176.249993" height="235" preserveAspectRatio="xMidYMid meet" version="1.0"><defs><g/><clipPath id="c7b06cf1ea"><path d="M 42 48 L 91 48 L 91 114.789062 L 42 114.789062 Z M 42 48 " clip-rule="nonzero"/></clipPath><clipPath id="b6c4b8c4e6"><path d="M 108 64 L 157 64 L 157 114.789062 L 108 114.789062 Z M 108 64 " clip-rule="nonzero"/></clipPath><clipPath id="2115de6aa5"><path d="M 49 37.777344 L 99 37.777344 L 99 114 L 49 114 Z M 49 37.777344 " clip-rule="nonzero"/></clipPath><clipPath id="cbe172c865"><path d="M 100 37.777344 L 150 37.777344 L 150 114 L 100 114 Z M 100 37.777344 " clip-rule="nonzero"/></clipPath><clipPath id="0f3feb78ed"><path d="M 172 37.777344 L 177 37.777344 L 177 42 L 172 42 Z M 172 37.777344 " clip-rule="nonzero"/></clipPath></defs><g clip-path="url(#c7b06cf1ea)"><path fill="#3f77c4" d="M 49.300781 107.289062 L 47.429688 107.488281 L 47.429688 48.605469 L 42.078125 48.605469 L 42.078125 114.671875 C 42.078125 114.671875 67.222656 106.765625 90.464844 112.128906 C 79.734375 107.652344 66.703125 106.875 59.003906 106.875 C 53.261719 106.875 49.339844 107.289062 49.300781 107.289062 " fill-opacity="1" fill-rule="nonzero"/></g><g clip-path="url(#b6c4b8c4e6)"><path fill="#3f77c4" d="M 153.492188 67.203125 C 153.433594 67.542969 153.292969 67.875 153.070312 68.164062 C 152.570312 68.777344 152.066406 69.375 151.5625 69.957031 L 151.5625 107.488281 L 149.695312 107.289062 C 149.660156 107.289062 145.734375 106.875 140 106.875 C 132.375 106.875 119.515625 107.636719 108.851562 111.996094 C 131.921875 106.898438 156.636719 114.671875 156.636719 114.671875 L 156.636719 64.609375 C 156.109375 65.199219 155.566406 65.804688 154.992188 66.457031 C 154.605469 66.890625 154.066406 67.152344 153.492188 67.203125 " fill-opacity="1" fill-rule="nonzero"/></g><path fill="#3f77c4" d="M 156.636719 48.605469 L 151.5625 48.605469 L 151.5625 56.613281 C 153.625 54.707031 155.277344 53.097656 156.636719 51.722656 L 156.636719 48.605469 " fill-opacity="1" fill-rule="nonzero"/><g clip-path="url(#2115de6aa5)"><path fill="#3f77c4" d="M 91.101562 53.636719 C 91.101562 53.984375 90.8125 54.277344 90.464844 54.277344 L 57.4375 54.277344 C 57.082031 54.277344 56.804688 53.984375 56.804688 53.636719 C 56.804688 53.289062 57.082031 53 57.4375 53 L 90.464844 53 C 90.8125 53 91.101562 53.289062 91.101562 53.636719 Z M 90.464844 59.378906 L 57.4375 59.378906 C 57.082031 59.378906 56.804688 59.089844 56.804688 58.742188 C 56.804688 58.386719 57.082031 58.105469 57.4375 58.105469 L 90.464844 58.105469 C 90.8125 58.105469 91.101562 58.386719 91.101562 58.742188 C 91.101562 59.089844 90.8125 59.378906 90.464844 59.378906 Z M 90.464844 64.484375 L 57.4375 64.484375 C 57.082031 64.484375 56.804688 64.195312 56.804688 63.847656 C 56.804688 63.492188 57.082031 63.210938 57.4375 63.210938 L 90.464844 63.210938 C 90.8125 63.210938 91.101562 63.492188 91.101562 63.847656 C 91.101562 64.195312 90.8125 64.484375 90.464844 64.484375 Z M 90.464844 69.589844 L 57.4375 69.589844 C 57.082031 69.589844 56.804688 69.300781 56.804688 68.953125 C 56.804688 68.597656 57.082031 68.3125 57.4375 68.3125 L 90.464844 68.3125 C 90.8125 68.3125 91.101562 68.597656 91.101562 68.953125 C 91.101562 69.300781 90.8125 69.589844 90.464844 69.589844 Z M 90.464844 74.6875 L 57.4375 74.6875 C 57.082031 74.6875 56.804688 74.40625 56.804688 74.050781 C 56.804688 73.699219 57.082031 73.417969 57.4375 73.417969 L 90.464844 73.417969 C 90.8125 73.417969 91.101562 73.699219 91.101562 74.050781 C 91.101562 74.40625 90.8125 74.6875 90.464844 74.6875 Z M 90.464844 79.792969 L 57.4375 79.792969 C 57.082031 79.792969 56.804688 79.511719 56.804688 79.152344 C 56.804688 78.804688 57.082031 78.515625 57.4375 78.515625 L 90.464844 78.515625 C 90.8125 78.515625 91.101562 78.804688 91.101562 79.152344 C 91.101562 79.511719 90.8125 79.792969 90.464844 79.792969 Z M 90.464844 84.898438 L 57.4375 84.898438 C 57.082031 84.898438 56.804688 84.613281 56.804688 84.257812 C 56.804688 83.910156 57.082031 83.621094 57.4375 83.621094 L 90.464844 83.621094 C 90.8125 83.621094 91.101562 83.910156 91.101562 84.257812 C 91.101562 84.613281 90.8125 84.898438 90.464844 84.898438 Z M 90.464844 90 L 57.4375 90 C 57.082031 90 56.804688 89.71875 56.804688 89.363281 C 56.804688 89.015625 57.082031 88.726562 57.4375 88.726562 L 90.464844 88.726562 C 90.8125 88.726562 91.101562 89.015625 91.101562 89.363281 C 91.101562 89.71875 90.8125 90 90.464844 90 Z M 90.464844 95.105469 L 57.4375 95.105469 C 57.082031 95.105469 56.804688 94.824219 56.804688 94.46875 C 56.804688 94.121094 57.082031 93.832031 57.4375 93.832031 L 90.464844 93.832031 C 90.8125 93.832031 91.101562 94.121094 91.101562 94.46875 C 91.101562 94.824219 90.8125 95.105469 90.464844 95.105469 Z M 49.96875 39.25 L 49.96875 104.753906 C 49.96875 104.753906 53.929688 104.320312 59.84375 104.320312 C 70.402344 104.320312 87.171875 105.679688 98.652344 113.214844 L 98.652344 46.898438 C 95.175781 44.8125 82.03125 37.683594 64.25 37.683594 C 59.761719 37.683594 54.964844 38.140625 49.96875 39.25 " fill-opacity="1" fill-rule="nonzero"/></g><path fill="#100f0d" d="M 134.621094 75.515625 L 134.628906 75.507812 Z M 134.621094 75.515625 " fill-opacity="1" fill-rule="nonzero"/><path fill="#100f0d" d="M 139.234375 80.125 L 139.21875 80.140625 Z M 139.234375 80.125 " fill-opacity="1" fill-rule="nonzero"/><g clip-path="url(#cbe172c865)"><path fill="#3f77c4" d="M 120.058594 85.824219 C 119.894531 85.824219 119.738281 85.765625 119.613281 85.644531 C 119.367188 85.394531 119.367188 84.988281 119.613281 84.738281 L 128.4375 75.863281 C 128.683594 75.617188 129.078125 75.617188 129.324219 75.863281 C 129.574219 76.113281 129.574219 76.519531 129.324219 76.765625 L 120.511719 85.644531 C 120.390625 85.765625 120.222656 85.824219 120.058594 85.824219 Z M 116.476562 82.21875 C 116.3125 82.21875 116.148438 82.164062 116.023438 82.039062 C 115.777344 81.78125 115.777344 81.382812 116.023438 81.132812 L 130.074219 66.996094 C 130.324219 66.746094 130.726562 66.746094 130.972656 66.996094 C 131.21875 67.246094 131.21875 67.652344 130.972656 67.898438 L 116.921875 82.039062 C 116.796875 82.164062 116.632812 82.21875 116.476562 82.21875 Z M 112.886719 78.617188 C 112.730469 78.617188 112.566406 78.550781 112.441406 78.425781 C 112.195312 78.175781 112.195312 77.769531 112.441406 77.519531 L 130.824219 59.023438 C 131.070312 58.777344 131.476562 58.777344 131.722656 59.023438 C 131.96875 59.273438 131.96875 59.679688 131.722656 59.925781 L 113.339844 78.425781 C 113.214844 78.550781 113.050781 78.617188 112.886719 78.617188 Z M 109.304688 75.003906 C 109.136719 75.003906 108.972656 74.9375 108.851562 74.8125 C 108.601562 74.5625 108.601562 74.164062 108.851562 73.917969 L 129.628906 53.007812 C 129.878906 52.757812 130.28125 52.757812 130.527344 53.007812 C 130.777344 53.257812 130.777344 53.664062 130.527344 53.910156 L 109.746094 74.8125 C 109.625 74.9375 109.46875 75.003906 109.304688 75.003906 Z M 105.710938 71.390625 C 105.546875 71.390625 105.390625 71.332031 105.265625 71.207031 C 105.019531 70.957031 105.019531 70.550781 105.265625 70.304688 L 128.617188 46.800781 C 128.863281 46.550781 129.269531 46.550781 129.515625 46.800781 C 129.769531 47.058594 129.769531 47.457031 129.515625 47.703125 L 106.164062 71.207031 C 106.042969 71.332031 105.875 71.390625 105.710938 71.390625 Z M 149.027344 104.753906 L 149.027344 72.714844 C 146.5 75.332031 144.011719 77.488281 141.910156 79.152344 C 141.253906 79.675781 140.625 80.15625 140.050781 80.578125 L 139.71875 80.820312 L 139.40625 81.042969 C 139.398438 81.050781 139.390625 81.058594 139.382812 81.066406 C 136.9375 82.824219 135.339844 83.738281 135.273438 83.769531 L 134.152344 84.398438 L 129.121094 85.75 L 130.386719 80.613281 L 131.015625 79.484375 C 131.054688 79.417969 131.953125 77.8125 133.699219 75.351562 C 133.707031 75.34375 133.714844 75.332031 133.722656 75.324219 L 133.945312 75.011719 L 134.183594 74.679688 C 134.605469 74.097656 135.082031 73.46875 135.601562 72.804688 C 138.140625 69.566406 141.804688 65.4375 146.523438 61.585938 C 146.871094 61.304688 147.207031 61.1875 147.488281 61.136719 C 147.535156 60.574219 147.800781 60.035156 148.230469 59.644531 C 148.5 59.40625 148.765625 59.164062 149.027344 58.925781 L 149.027344 39.25 C 144.027344 38.140625 139.242188 37.683594 134.746094 37.683594 C 116.972656 37.683594 103.816406 44.8125 100.339844 46.898438 L 100.339844 113.214844 C 111.824219 105.679688 128.59375 104.320312 139.152344 104.320312 C 145.066406 104.320312 149.027344 104.753906 149.027344 104.753906 " fill-opacity="1" fill-rule="nonzero"/></g><path fill="#36404d" d="M 149.027344 70.253906 C 149.875 69.324219 150.734375 68.347656 151.5625 67.320312 C 151.628906 67.246094 151.6875 67.171875 151.753906 67.085938 C 151.871094 66.957031 151.851562 66.746094 151.730469 66.625 C 151.671875 66.566406 151.621094 66.515625 151.5625 66.457031 C 150.378906 65.257812 149.578125 64.417969 149.027344 63.855469 C 148.277344 63.085938 147.988281 62.820312 147.792969 62.820312 C 147.71875 62.820312 147.660156 62.851562 147.59375 62.902344 C 142.613281 66.972656 138.832031 71.339844 136.292969 74.6875 L 136.679688 75.722656 C 137.085938 76.808594 137.933594 77.664062 139.011719 78.066406 L 140.050781 78.457031 C 142.636719 76.46875 145.832031 73.726562 149.027344 70.253906 " fill-opacity="1" fill-rule="nonzero"/><g clip-path="url(#0f3feb78ed)"><path fill="#36404d" d="M 176.339844 41.671875 C 176.496094 41.671875 176.613281 41.621094 176.695312 41.539062 C 176.941406 41.296875 176.835938 40.691406 176.242188 39.890625 C 176.042969 39.617188 175.796875 39.324219 175.492188 39.019531 C 175.1875 38.710938 174.898438 38.472656 174.636719 38.273438 C 174.089844 37.867188 173.648438 37.683594 173.332031 37.683594 C 173.183594 37.683594 173.0625 37.726562 172.988281 37.808594 C 172.65625 38.140625 172.945312 39.09375 174.183594 40.335938 C 175.113281 41.273438 175.878906 41.671875 176.339844 41.671875 " fill-opacity="1" fill-rule="nonzero"/></g><path fill="#36404d" d="M 173.367188 48.242188 C 171.777344 50.066406 169.289062 52.542969 165.609375 55.34375 C 164.890625 55.882812 164.132812 56.4375 163.328125 57.003906 C 163.136719 56.9375 162.964844 56.894531 162.800781 56.863281 C 162.632812 56.835938 162.496094 56.820312 162.355469 56.820312 C 161.957031 56.820312 161.636719 56.925781 161.367188 57.09375 C 161.753906 56.703125 162.132812 56.332031 162.484375 55.976562 C 163.226562 55.253906 163.902344 54.617188 164.519531 54.035156 C 167.460938 51.308594 169.214844 50.039062 171.355469 47.886719 C 171.546875 47.6875 171.742188 47.488281 171.941406 47.273438 C 172.132812 47.074219 172.328125 46.867188 172.519531 46.652344 L 173.703125 47.84375 C 173.597656 47.976562 173.480469 48.109375 173.367188 48.242188 Z M 176.949219 45.523438 L 176.273438 44.851562 L 175.070312 43.644531 C 175.1875 43.503906 175.300781 43.351562 175.417969 43.203125 C 175.089844 43.097656 174.734375 42.921875 174.378906 42.691406 C 174.15625 42.550781 173.925781 42.375 173.6875 42.175781 C 173.457031 41.984375 173.226562 41.777344 172.988281 41.539062 C 172.046875 40.59375 171.554688 39.78125 171.324219 39.09375 C 164.011719 44.9375 164.710938 46.171875 156.636719 54.117188 C 155.238281 55.492188 153.582031 57.078125 151.5625 58.917969 C 150.863281 59.554688 150.132812 60.21875 149.347656 60.921875 C 149.109375 61.128906 149.101562 61.503906 149.324219 61.726562 L 152.921875 65.347656 C 153.03125 65.457031 153.171875 65.511719 153.3125 65.511719 C 153.46875 65.511719 153.617188 65.445312 153.722656 65.324219 C 154.769531 64.144531 155.742188 63.070312 156.636719 62.082031 C 157.214844 61.445312 157.773438 60.847656 158.300781 60.285156 C 158.582031 59.984375 158.84375 59.695312 159.109375 59.421875 C 159.636719 58.867188 160.136719 58.34375 160.617188 57.847656 C 160.238281 58.453125 160.066406 59.140625 159.964844 59.4375 C 159.925781 59.5625 159.917969 59.679688 159.933594 59.785156 C 159.964844 60.101562 160.195312 60.351562 160.484375 60.433594 C 160.550781 60.457031 160.625 60.464844 160.699219 60.464844 C 160.847656 60.464844 160.996094 60.433594 161.144531 60.332031 C 171.199219 53.945312 177.824219 46.410156 176.949219 45.523438 " fill-opacity="1" fill-rule="nonzero"/><path fill="#36404d" d="M 136.335938 81.109375 C 136.65625 80.894531 137.019531 80.652344 137.40625 80.390625 C 137.660156 80.207031 137.933594 80.015625 138.214844 79.816406 C 138.289062 79.765625 138.351562 79.71875 138.425781 79.667969 C 136.894531 79.085938 135.667969 77.859375 135.089844 76.320312 C 135.042969 76.386719 135 76.460938 134.941406 76.527344 C 134.746094 76.808594 134.554688 77.082031 134.382812 77.339844 C 134.109375 77.738281 133.871094 78.09375 133.660156 78.417969 L 134.160156 78.914062 L 135.839844 80.605469 L 136.335938 81.109375 " fill-opacity="1" fill-rule="nonzero"/><path fill="#36404d" d="M 132.734375 80.570312 C 132.628906 80.785156 132.488281 81.058594 132.332031 81.367188 C 132.199219 81.632812 132.070312 81.90625 131.9375 82.171875 C 131.574219 82.890625 131.261719 83.519531 131.269531 83.519531 L 132.605469 82.839844 L 133.402344 82.445312 L 134.203125 82.039062 L 134.648438 81.8125 L 132.957031 80.117188 C 132.957031 80.125 132.867188 80.304688 132.734375 80.570312 " fill-opacity="1" fill-rule="nonzero"/><g fill="#000000" fill-opacity="1"><g transform="translate(38.947373, 132.000961)"><g><path d="M 8.640625 -6.796875 C 9.140625 -6.453125 9.535156 -6.015625 9.828125 -5.484375 C 10.117188 -4.953125 10.265625 -4.363281 10.265625 -3.71875 C 10.265625 -3.195312 10.164062 -2.707031 9.96875 -2.25 C 9.769531 -1.800781 9.5 -1.410156 9.15625 -1.078125 C 8.8125 -0.742188 8.414062 -0.476562 7.96875 -0.28125 C 7.519531 -0.09375 7.035156 0 6.515625 0 L 0.84375 0 L 0.84375 -12.484375 L 6.34375 -12.484375 C 6.8125 -12.484375 7.25 -12.390625 7.65625 -12.203125 C 8.070312 -12.023438 8.429688 -11.785156 8.734375 -11.484375 C 9.046875 -11.179688 9.289062 -10.820312 9.46875 -10.40625 C 9.644531 -10 9.734375 -9.5625 9.734375 -9.09375 C 9.734375 -8.582031 9.632812 -8.132812 9.4375 -7.75 C 9.25 -7.375 8.984375 -7.054688 8.640625 -6.796875 Z M 3.515625 -7.796875 L 6.34375 -7.796875 C 6.65625 -7.796875 6.921875 -7.90625 7.140625 -8.125 C 7.367188 -8.351562 7.484375 -8.628906 7.484375 -8.953125 C 7.484375 -9.265625 7.367188 -9.523438 7.140625 -9.734375 C 6.921875 -9.953125 6.65625 -10.0625 6.34375 -10.0625 L 3.515625 -10.0625 Z M 6.515625 -2.40625 C 6.867188 -2.40625 7.164062 -2.554688 7.40625 -2.859375 C 7.65625 -3.160156 7.78125 -3.507812 7.78125 -3.90625 C 7.78125 -4.320312 7.65625 -4.671875 7.40625 -4.953125 C 7.164062 -5.234375 6.867188 -5.375 6.515625 -5.375 L 3.515625 -5.375 L 3.515625 -2.40625 Z M 6.515625 -2.40625 "/></g></g></g><g fill="#000000" fill-opacity="1"><g transform="translate(49.845266, 132.000961)"><g><path d="M 5.375 -12.484375 L 5.375 -10.234375 L 4.4375 -10.234375 L 4.4375 -2.234375 L 5.375 -2.234375 L 5.375 0 L 0.828125 0 L 0.828125 -2.234375 L 1.765625 -2.234375 L 1.765625 -10.234375 L 0.828125 -10.234375 L 0.828125 -12.484375 Z M 5.375 -12.484375 "/></g></g></g><g fill="#000000" fill-opacity="1"><g transform="translate(56.024846, 132.000961)"><g><path d="M 6.015625 -4.015625 L 0.84375 -4.015625 L 0.84375 -5.671875 L 6.015625 -5.671875 Z M 6.015625 -4.015625 "/></g></g></g><g fill="#000000" fill-opacity="1"><g transform="translate(62.873445, 132.000961)"><g><path d="M 5.875 -12.484375 C 6.78125 -12.484375 7.578125 -12.316406 8.265625 -11.984375 C 8.960938 -11.660156 9.539062 -11.21875 10 -10.65625 C 10.46875 -10.09375 10.820312 -9.425781 11.0625 -8.65625 C 11.300781 -7.894531 11.421875 -7.085938 11.421875 -6.234375 C 11.421875 -5.367188 11.296875 -4.554688 11.046875 -3.796875 C 10.796875 -3.035156 10.445312 -2.375 10 -1.8125 C 9.550781 -1.25 9.019531 -0.804688 8.40625 -0.484375 C 7.800781 -0.160156 7.140625 0 6.421875 0 L 0.84375 0 L 0.84375 -12.484375 Z M 5.90625 -2.40625 C 6.40625 -2.40625 6.832031 -2.507812 7.1875 -2.71875 C 7.550781 -2.925781 7.847656 -3.203125 8.078125 -3.546875 C 8.316406 -3.898438 8.488281 -4.304688 8.59375 -4.765625 C 8.707031 -5.222656 8.765625 -5.707031 8.765625 -6.21875 C 8.765625 -6.71875 8.710938 -7.195312 8.609375 -7.65625 C 8.503906 -8.125 8.332031 -8.535156 8.09375 -8.890625 C 7.863281 -9.242188 7.566406 -9.523438 7.203125 -9.734375 C 6.835938 -9.953125 6.40625 -10.0625 5.90625 -10.0625 L 3.515625 -10.0625 L 3.515625 -2.40625 Z M 5.90625 -2.40625 "/></g></g></g><g fill="#000000" fill-opacity="1"><g transform="translate(74.898099, 132.000961)"><g><path d="M 5.375 -12.484375 L 5.375 -10.234375 L 4.4375 -10.234375 L 4.4375 -2.234375 L 5.375 -2.234375 L 5.375 0 L 0.828125 0 L 0.828125 -2.234375 L 1.765625 -2.234375 L 1.765625 -10.234375 L 0.828125 -10.234375 L 0.828125 -12.484375 Z M 5.375 -12.484375 "/></g></g></g><g fill="#000000" fill-opacity="1"><g transform="translate(81.077679, 132.000961)"><g><path d="M 6.703125 -2.4375 C 7.265625 -2.4375 7.816406 -2.5625 8.359375 -2.8125 C 8.898438 -3.070312 9.445312 -3.507812 10 -4.125 L 11.734375 -2.484375 C 11.035156 -1.585938 10.242188 -0.910156 9.359375 -0.453125 C 8.472656 0.00390625 7.5625 0.234375 6.625 0.234375 C 5.78125 0.234375 4.988281 0.0625 4.25 -0.28125 C 3.507812 -0.632812 2.863281 -1.101562 2.3125 -1.6875 C 1.769531 -2.28125 1.34375 -2.960938 1.03125 -3.734375 C 0.71875 -4.515625 0.5625 -5.347656 0.5625 -6.234375 C 0.5625 -7.109375 0.722656 -7.929688 1.046875 -8.703125 C 1.367188 -9.484375 1.804688 -10.164062 2.359375 -10.75 C 2.910156 -11.34375 3.5625 -11.804688 4.3125 -12.140625 C 5.0625 -12.484375 5.859375 -12.65625 6.703125 -12.65625 C 7.492188 -12.65625 8.242188 -12.507812 8.953125 -12.21875 C 9.660156 -11.925781 10.359375 -11.441406 11.046875 -10.765625 L 9.484375 -8.875 C 8.992188 -9.332031 8.53125 -9.640625 8.09375 -9.796875 C 7.65625 -9.953125 7.191406 -10.03125 6.703125 -10.03125 C 6.222656 -10.03125 5.769531 -9.929688 5.34375 -9.734375 C 4.914062 -9.535156 4.539062 -9.265625 4.21875 -8.921875 C 3.90625 -8.585938 3.65625 -8.1875 3.46875 -7.71875 C 3.289062 -7.257812 3.203125 -6.765625 3.203125 -6.234375 C 3.203125 -5.703125 3.289062 -5.207031 3.46875 -4.75 C 3.65625 -4.289062 3.90625 -3.890625 4.21875 -3.546875 C 4.539062 -3.203125 4.914062 -2.929688 5.34375 -2.734375 C 5.769531 -2.535156 6.222656 -2.4375 6.703125 -2.4375 Z M 6.703125 -2.4375 "/></g></g></g><g fill="#000000" fill-opacity="1"><g transform="translate(93.3136, 132.000961)"><g><path d="M 0.40625 -12.484375 L 9.4375 -12.484375 L 9.4375 -10.0625 L 6.25 -10.0625 L 6.25 0 L 3.59375 0 L 3.59375 -10.0625 L 0.40625 -10.0625 Z M 0.40625 -12.484375 "/></g></g></g><g fill="#000000" fill-opacity="1"><g transform="translate(103.155157, 132.000961)"><g><path d="M 5.375 -12.484375 L 5.375 -10.234375 L 4.4375 -10.234375 L 4.4375 -2.234375 L 5.375 -2.234375 L 5.375 0 L 0.828125 0 L 0.828125 -2.234375 L 1.765625 -2.234375 L 1.765625 -10.234375 L 0.828125 -10.234375 L 0.828125 -12.484375 Z M 5.375 -12.484375 "/></g></g></g><g fill="#000000" fill-opacity="1"><g transform="translate(109.334737, 132.000961)"><g><path d="M 6.734375 -12.65625 C 7.578125 -12.65625 8.375 -12.484375 9.125 -12.140625 C 9.875 -11.804688 10.523438 -11.34375 11.078125 -10.75 C 11.640625 -10.164062 12.082031 -9.484375 12.40625 -8.703125 C 12.726562 -7.929688 12.890625 -7.109375 12.890625 -6.234375 C 12.890625 -5.367188 12.726562 -4.539062 12.40625 -3.75 C 12.082031 -2.96875 11.640625 -2.28125 11.078125 -1.6875 C 10.523438 -1.101562 9.875 -0.632812 9.125 -0.28125 C 8.375 0.0625 7.578125 0.234375 6.734375 0.234375 C 5.878906 0.234375 5.078125 0.0625 4.328125 -0.28125 C 3.578125 -0.632812 2.925781 -1.101562 2.375 -1.6875 C 1.820312 -2.28125 1.382812 -2.96875 1.0625 -3.75 C 0.738281 -4.539062 0.578125 -5.367188 0.578125 -6.234375 C 0.578125 -7.109375 0.738281 -7.929688 1.0625 -8.703125 C 1.382812 -9.484375 1.820312 -10.164062 2.375 -10.75 C 2.925781 -11.34375 3.578125 -11.804688 4.328125 -12.140625 C 5.078125 -12.484375 5.878906 -12.65625 6.734375 -12.65625 Z M 6.734375 -2.4375 C 7.210938 -2.4375 7.660156 -2.535156 8.078125 -2.734375 C 8.503906 -2.929688 8.875 -3.203125 9.1875 -3.546875 C 9.507812 -3.890625 9.757812 -4.289062 9.9375 -4.75 C 10.125 -5.207031 10.21875 -5.703125 10.21875 -6.234375 C 10.21875 -6.765625 10.125 -7.257812 9.9375 -7.71875 C 9.757812 -8.1875 9.507812 -8.59375 9.1875 -8.9375 C 8.875 -9.28125 8.503906 -9.550781 8.078125 -9.75 C 7.660156 -9.957031 7.210938 -10.0625 6.734375 -10.0625 C 6.242188 -10.0625 5.785156 -9.957031 5.359375 -9.75 C 4.941406 -9.550781 4.570312 -9.28125 4.25 -8.9375 C 3.9375 -8.59375 3.6875 -8.1875 3.5 -7.71875 C 3.320312 -7.257812 3.234375 -6.765625 3.234375 -6.234375 C 3.234375 -5.703125 3.320312 -5.207031 3.5 -4.75 C 3.6875 -4.289062 3.9375 -3.890625 4.25 -3.546875 C 4.570312 -3.203125 4.941406 -2.929688 5.359375 -2.734375 C 5.785156 -2.535156 6.242188 -2.4375 6.734375 -2.4375 Z M 6.734375 -2.4375 "/></g></g></g><g fill="#000000" fill-opacity="1"><g transform="translate(122.803053, 132.000961)"><g><path d="M 9.375 -12.484375 L 12.03125 -12.484375 L 12.03125 0 L 9.484375 0 L 3.484375 -8.15625 L 3.484375 0 L 0.828125 0 L 0.828125 -12.484375 L 3.328125 -12.484375 L 9.375 -4.28125 Z M 9.375 -12.484375 "/></g></g></g><g fill="#000000" fill-opacity="1"><g transform="translate(135.655172, 132.000961)"><g><path d="M 8.5 -12.484375 L 13.71875 0 L 10.828125 0 L 9.703125 -2.671875 L 4.40625 -2.671875 L 3.296875 0 L 0.390625 0 L 5.59375 -12.484375 Z M 8.703125 -5.109375 L 7.0625 -9.03125 L 5.421875 -5.109375 Z M 8.703125 -5.109375 "/></g></g></g><g fill="#000000" fill-opacity="1"><g transform="translate(149.757301, 132.000961)"><g><path d="M 9.8125 -8.765625 C 9.8125 -8.367188 9.753906 -7.988281 9.640625 -7.625 C 9.523438 -7.269531 9.367188 -6.941406 9.171875 -6.640625 C 8.972656 -6.347656 8.734375 -6.085938 8.453125 -5.859375 C 8.171875 -5.628906 7.863281 -5.441406 7.53125 -5.296875 L 11.671875 0 L 8.5625 0 L 4.703125 -5.03125 L 3.5 -5.03125 L 3.5 0 L 0.828125 0 L 0.828125 -12.484375 L 6.21875 -12.484375 C 6.707031 -12.484375 7.171875 -12.382812 7.609375 -12.1875 C 8.054688 -12 8.441406 -11.738281 8.765625 -11.40625 C 9.085938 -11.070312 9.34375 -10.675781 9.53125 -10.21875 C 9.71875 -9.769531 9.8125 -9.285156 9.8125 -8.765625 Z M 5.875 -7.46875 C 6.21875 -7.46875 6.507812 -7.59375 6.75 -7.84375 C 7 -8.09375 7.125 -8.398438 7.125 -8.765625 C 7.125 -9.117188 7 -9.421875 6.75 -9.671875 C 6.507812 -9.929688 6.21875 -10.0625 5.875 -10.0625 L 3.5 -10.0625 L 3.5 -7.46875 Z M 5.875 -7.46875 "/></g></g></g><g fill="#000000" fill-opacity="1"><g transform="translate(161.852382, 132.000961)"><g><path d="M 8.65625 -12.484375 L 11.890625 -12.484375 L 7.4375 -5.84375 L 7.4375 0 L 4.765625 0 L 4.765625 -5.84375 L 0.3125 -12.484375 L 3.546875 -12.484375 L 6.109375 -8.640625 Z M 8.65625 -12.484375 "/></g></g></g></svg>